<svg width="914" height="288" viewBox="0 0 914 288" fill="none" xmlns="http://www.w3.org/2000/svg">
<rect width="914" height="288" rx="144" fill="#E91F25"/>
<path d="M253.86 182C252.25 182 250.85 181.405 249.66 180.215C248.54 179.025 247.98 177.625 247.98 176.015V111.335C247.98 109.725 248.54 108.325 249.66 107.135C250.85 105.945 252.25 105.35 253.86 105.35H291.03C292.64 105.35 294.005 105.945 295.125 107.135C296.315 108.325 296.91 109.725 296.91 111.335V113.75C296.91 115.36 296.315 116.76 295.125 117.95C294.005 119.14 292.64 119.735 291.03 119.735H266.67C266.11 119.735 265.83 120.015 265.83 120.575V134.435C265.83 135.065 266.11 135.38 266.67 135.38H288.93C290.54 135.38 291.905 135.975 293.025 137.165C294.215 138.355 294.81 139.755 294.81 141.365V142.94C294.81 144.55 294.215 145.95 293.025 147.14C291.905 148.33 290.54 148.925 288.93 148.925H266.67C266.11 148.925 265.83 149.205 265.83 149.765V166.775C265.83 167.335 266.11 167.615 266.67 167.615H291.03C292.64 167.615 294.005 168.21 295.125 169.4C296.315 170.59 296.91 171.99 296.91 173.6V176.015C296.91 177.625 296.315 179.025 295.125 180.215C294.005 181.405 292.64 182 291.03 182H253.86ZM307.872 120.155C306.262 120.155 304.862 119.56 303.672 118.37C302.482 117.18 301.887 115.78 301.887 114.17V111.335C301.887 109.725 302.482 108.325 303.672 107.135C304.862 105.945 306.262 105.35 307.872 105.35H354.702C356.312 105.35 357.712 105.945 358.902 107.135C360.092 108.325 360.687 109.725 360.687 111.335V114.17C360.687 115.78 360.092 117.18 358.902 118.37C357.712 119.56 356.312 120.155 354.702 120.155H341.262C340.702 120.155 340.422 120.435 340.422 120.995V176.015C340.422 177.625 339.827 179.025 338.637 180.215C337.447 181.405 336.047 182 334.437 182H328.137C326.527 182 325.127 181.405 323.937 180.215C322.747 179.025 322.152 177.625 322.152 176.015V120.995C322.152 120.435 321.872 120.155 321.312 120.155H307.872ZM372.668 182C371.058 182 369.658 181.405 368.468 180.215C367.278 179.025 366.683 177.625 366.683 176.015V111.335C366.683 109.725 367.278 108.325 368.468 107.135C369.658 105.945 371.058 105.35 372.668 105.35H378.653C380.263 105.35 381.628 105.945 382.748 107.135C383.938 108.325 384.533 109.725 384.533 111.335V134.435C384.533 135.065 384.848 135.38 385.478 135.38H407.108C407.738 135.38 408.053 135.065 408.053 134.435V111.335C408.053 109.725 408.613 108.325 409.733 107.135C410.923 105.945 412.323 105.35 413.933 105.35H419.918C421.528 105.35 422.928 105.945 424.118 107.135C425.308 108.325 425.903 109.725 425.903 111.335V176.015C425.903 177.625 425.308 179.025 424.118 180.215C422.928 181.405 421.528 182 419.918 182H413.933C412.323 182 410.923 181.405 409.733 180.215C408.613 179.025 408.053 177.625 408.053 176.015V149.765C408.053 149.205 407.738 148.925 407.108 148.925H385.478C384.848 148.925 384.533 149.205 384.533 149.765V176.015C384.533 177.625 383.938 179.025 382.748 180.215C381.628 181.405 380.263 182 378.653 182H372.668Z" fill="white"/>
<path d="M441.965 182C440.355 182 438.955 181.405 437.765 180.215C436.575 179.025 435.98 177.625 435.98 176.015V111.335C435.98 109.725 436.575 108.325 437.765 107.135C438.955 105.945 440.355 105.35 441.965 105.35H447.95C449.77 105.35 451.415 105.84 452.885 106.82C454.355 107.8 455.44 109.13 456.14 110.81L472.415 150.395C472.415 150.465 472.45 150.5 472.52 150.5C472.59 150.5 472.625 150.465 472.625 150.395L488.9 110.81C489.6 109.13 490.685 107.8 492.155 106.82C493.625 105.84 495.27 105.35 497.09 105.35H503.495C505.105 105.35 506.505 105.945 507.695 107.135C508.885 108.325 509.48 109.725 509.48 111.335V176.015C509.48 177.625 508.885 179.025 507.695 180.215C506.505 181.405 505.105 182 503.495 182H498.455C496.845 182 495.445 181.405 494.255 180.215C493.135 179.025 492.575 177.625 492.575 176.015V135.17C492.575 135.1 492.54 135.065 492.47 135.065C492.33 135.065 492.26 135.1 492.26 135.17L482.18 159.005C481.48 160.685 480.36 162.015 478.82 162.995C477.35 163.975 475.705 164.465 473.885 164.465H471.155C469.335 164.465 467.655 163.975 466.115 162.995C464.645 162.015 463.56 160.685 462.86 159.005L452.78 135.17C452.78 135.1 452.71 135.065 452.57 135.065C452.5 135.065 452.465 135.1 452.465 135.17V176.015C452.465 177.625 451.87 179.025 450.68 180.215C449.56 181.405 448.195 182 446.585 182H441.965ZM575.794 154.175C575.794 173.425 565.994 183.05 546.394 183.05C526.794 183.05 516.994 173.425 516.994 154.175V111.335C516.994 109.725 517.589 108.325 518.779 107.135C519.969 105.945 521.369 105.35 522.979 105.35H529.069C530.679 105.35 532.079 105.945 533.269 107.135C534.459 108.325 535.054 109.725 535.054 111.335V155.435C535.054 160.195 535.964 163.59 537.784 165.62C539.604 167.65 542.544 168.665 546.604 168.665C550.664 168.665 553.604 167.65 555.424 165.62C557.244 163.59 558.154 160.195 558.154 155.435V111.335C558.154 109.725 558.749 108.325 559.939 107.135C561.129 105.945 562.529 105.35 564.139 105.35H569.809C571.419 105.35 572.819 105.945 574.009 107.135C575.199 108.325 575.794 109.725 575.794 111.335V154.175ZM589.379 182C587.769 182 586.369 181.405 585.179 180.215C583.989 179.025 583.394 177.625 583.394 176.015V111.335C583.394 109.725 583.989 108.325 585.179 107.135C586.369 105.945 587.769 105.35 589.379 105.35H595.364C597.184 105.35 598.829 105.84 600.299 106.82C601.769 107.8 602.854 109.13 603.554 110.81L619.829 150.395C619.829 150.465 619.864 150.5 619.934 150.5C620.004 150.5 620.039 150.465 620.039 150.395L636.314 110.81C637.014 109.13 638.099 107.8 639.569 106.82C641.039 105.84 642.684 105.35 644.504 105.35H650.909C652.519 105.35 653.919 105.945 655.109 107.135C656.299 108.325 656.894 109.725 656.894 111.335V176.015C656.894 177.625 656.299 179.025 655.109 180.215C653.919 181.405 652.519 182 650.909 182H645.869C644.259 182 642.859 181.405 641.669 180.215C640.549 179.025 639.989 177.625 639.989 176.015V135.17C639.989 135.1 639.954 135.065 639.884 135.065C639.744 135.065 639.674 135.1 639.674 135.17L629.594 159.005C628.894 160.685 627.774 162.015 626.234 162.995C624.764 163.975 623.119 164.465 621.299 164.465H618.569C616.749 164.465 615.069 163.975 613.529 162.995C612.059 162.015 610.974 160.685 610.274 159.005L600.194 135.17C600.194 135.1 600.124 135.065 599.984 135.065C599.914 135.065 599.879 135.1 599.879 135.17V176.015C599.879 177.625 599.284 179.025 598.094 180.215C596.974 181.405 595.609 182 593.999 182H589.379ZM682.993 149.45V167.93C682.993 168.56 683.308 168.945 683.938 169.085C685.408 169.365 687.193 169.505 689.293 169.505C694.263 169.505 697.903 168.595 700.213 166.775C702.523 164.885 703.678 162.015 703.678 158.165C703.678 151.725 698.428 148.505 687.928 148.505H683.833C683.273 148.505 682.993 148.82 682.993 149.45ZM682.993 119.42V134.855C682.993 135.415 683.273 135.695 683.833 135.695H686.458C696.678 135.695 701.788 132.65 701.788 126.56C701.788 120.75 697.518 117.845 688.978 117.845C686.948 117.845 685.233 117.985 683.833 118.265C683.273 118.405 682.993 118.79 682.993 119.42ZM671.338 182.21C669.658 182.07 668.258 181.335 667.138 180.005C666.018 178.675 665.458 177.17 665.458 175.49V111.86C665.458 110.11 666.018 108.605 667.138 107.345C668.328 106.015 669.763 105.28 671.443 105.14C676.903 104.58 682.258 104.3 687.508 104.3C707.808 104.3 717.958 110.845 717.958 123.935C717.958 128.345 716.523 132.09 713.653 135.17C710.853 138.25 707.073 140.21 702.313 141.05C702.243 141.05 702.208 141.12 702.208 141.26C702.208 141.33 702.278 141.365 702.418 141.365C707.948 142.135 712.323 144.235 715.543 147.665C718.833 151.095 720.478 155.19 720.478 159.95C720.478 167.72 717.888 173.53 712.708 177.38C707.598 181.16 699.548 183.05 688.558 183.05C683.028 183.05 677.288 182.77 671.338 182.21ZM751.136 120.89L743.471 151.025C743.401 151.235 743.436 151.445 743.576 151.655C743.786 151.795 743.996 151.865 744.206 151.865H758.276C758.486 151.865 758.661 151.795 758.801 151.655C759.011 151.445 759.081 151.235 759.011 151.025L751.346 120.89C751.346 120.82 751.311 120.785 751.241 120.785C751.171 120.785 751.136 120.82 751.136 120.89ZM723.101 182C721.631 182 720.441 181.405 719.531 180.215C718.691 179.025 718.516 177.73 719.006 176.33L740.216 111.02C740.776 109.34 741.756 107.975 743.156 106.925C744.626 105.875 746.236 105.35 747.986 105.35H754.916C756.736 105.35 758.381 105.875 759.851 106.925C761.321 107.975 762.301 109.34 762.791 111.02L783.896 176.33C784.386 177.73 784.176 179.025 783.266 180.215C782.426 181.405 781.271 182 779.801 182H772.766C771.016 182 769.441 181.475 768.041 180.425C766.641 179.305 765.731 177.905 765.311 176.225L762.791 166.25C762.721 165.69 762.371 165.41 761.741 165.41H740.741C740.181 165.41 739.831 165.69 739.691 166.25L737.171 176.225C736.751 177.905 735.841 179.305 734.441 180.425C733.041 181.475 731.466 182 729.716 182H723.101ZM793.667 182C792.057 182 790.657 181.405 789.467 180.215C788.347 179.025 787.787 177.625 787.787 176.015V111.335C787.787 109.725 788.347 108.325 789.467 107.135C790.657 105.945 792.057 105.35 793.667 105.35H801.437C803.047 105.35 804.412 105.945 805.532 107.135C806.722 108.325 807.317 109.725 807.317 111.335V176.015C807.317 177.625 806.722 179.025 805.532 180.215C804.412 181.405 803.047 182 801.437 182H793.667Z" fill="white"/>
<path d="M152.221 28V113.78L81.0003 146.169L152.221 28Z" fill="#62D0FC"/>
<path d="M223.414 146.169L152.221 113.78V28L223.414 146.169Z" fill="#1EABE4"/>
<path d="M152.221 188.247V113.78L81 146.169L152.221 188.247Z" fill="#1EABE4"/>
<path d="M223.414 146.169L152.221 113.78V188.247L223.414 146.169Z" fill="#0075A5"/>
<path d="M196.19 162.258H108.24L152.235 188.283L196.19 162.258Z" fill="#E91F25"/>
<path d="M223.47 159.664L152.221 201.742V260L223.47 159.664Z" fill="#1EABE4"/>
<path d="M81 159.664L152.221 201.742V260L81 159.664Z" fill="#62D0FC"/>
<path d="M196.165 106.922H108.301V155.67H196.165V106.922Z" fill="#E91F25"/>
<path d="M196.158 106.922H152.24V155.67H196.158V106.922Z" fill="#BF0613"/>
<path d="M113.702 112.163H148.68C149.264 112.163 149.736 112.637 149.736 113.219V134.668H113.702C113.117 134.668 112.646 134.194 112.646 133.612V113.221C112.646 112.637 113.12 112.165 113.702 112.165V112.163Z" fill="black"/>
<path d="M155.896 112.163H190.874C191.459 112.163 191.93 112.637 191.93 113.219V133.61C191.93 134.195 191.456 134.666 190.874 134.666H154.84V113.217C154.84 112.632 155.314 112.161 155.896 112.161V112.163Z" fill="black"/>
<path d="M113.737 137.138H149.736V146.113C149.736 146.716 149.245 147.207 148.642 147.207H113.737C113.133 147.207 112.643 146.716 112.643 146.113V138.229C112.643 137.626 113.133 137.136 113.737 137.136V137.138Z" fill="black"/>
<path d="M154.838 137.138H190.835C191.438 137.138 191.928 137.629 191.928 138.232V146.111C191.928 146.714 191.438 147.205 190.835 147.205H155.932C155.329 147.205 154.838 146.714 154.838 146.111V137.136V137.138Z" fill="black"/>
<path fill-rule="evenodd" clip-rule="evenodd" d="M108.275 107.06L196.174 107.036C195.948 102.765 196.57 98.96 192.881 96.4064C189.694 94.2025 185.849 93.4233 181.3 92.6793C166.068 90.1891 138.751 90.1867 123.491 92.6699C119.435 93.3294 114.562 94.3034 111.842 96.336C109.138 98.3568 108.035 101.887 108.272 107.057L108.275 107.06Z" fill="white"/>
<path fill-rule="evenodd" clip-rule="evenodd" d="M152.228 107.048L196.172 107.037C195.946 102.765 196.568 98.9604 192.879 96.4068C189.691 94.2029 185.847 93.4237 181.298 92.6797C173.682 91.4334 162.86 90.8114 152.219 90.8091L152.226 107.046L152.228 107.048Z" fill="#E3E6E8"/>
<path d="M156.612 95.9961H129.502C128.982 95.9961 128.561 96.4175 128.561 96.9373V102.3C128.561 102.82 128.982 103.241 129.502 103.241H156.612C157.132 103.241 157.554 102.82 157.554 102.3V96.9373C157.554 96.4175 157.132 95.9961 156.612 95.9961Z" fill="#020100"/>
<path d="M176.215 94.9546H169.002C168.482 94.9546 168.061 95.376 168.061 95.8958V103.341C168.061 103.86 168.482 104.282 169.002 104.282H176.215C176.734 104.282 177.156 103.86 177.156 103.341V95.8958C177.156 95.376 176.734 94.9546 176.215 94.9546Z" fill="#020100"/>
<path fill-rule="evenodd" clip-rule="evenodd" d="M196.174 162.206L186.344 162.638C175.513 163.115 165.536 164.689 159.408 173.493L152.219 183.818L145.034 173.484C138.887 164.643 128.863 163.056 117.987 162.608L108.291 162.206V155.484H196.174V162.206Z" fill="#FBCE01"/>
<path fill-rule="evenodd" clip-rule="evenodd" d="M152.237 155.484H196.176V162.206L186.347 162.638C175.515 163.115 165.538 164.689 159.41 173.493L152.221 183.818L152.237 155.484Z" fill="#F9BE03"/>
<path d="M160.006 161.368H144.464C144.074 161.368 143.76 161.054 143.76 160.664C143.76 160.274 144.074 159.96 144.464 159.96H160.006C160.396 159.96 160.71 160.274 160.71 160.664C160.71 161.054 160.396 161.368 160.006 161.368Z" fill="black"/>
<path d="M160.006 165.048H144.464C144.074 165.048 143.76 164.734 143.76 164.344C143.76 163.955 144.074 163.64 144.464 163.64H160.006C160.396 163.64 160.71 163.955 160.71 164.344C160.71 164.734 160.396 165.048 160.006 165.048Z" fill="black"/>
<path d="M160.006 168.729H144.464C144.074 168.729 143.76 168.415 143.76 168.025C143.76 167.635 144.074 167.321 144.464 167.321H160.006C160.396 167.321 160.71 167.635 160.71 168.025C160.71 168.415 160.396 168.729 160.006 168.729Z" fill="black"/>
<path d="M196.165 152.677H108.301V156.625H196.165V152.677Z" fill="#029D3D"/>
<path d="M196.179 152.677H152.233V156.625H196.179V152.677Z" fill="#07702C"/>
<path d="M133.264 173.535C135.027 173.535 136.456 172.106 136.456 170.343C136.456 168.58 135.027 167.151 133.264 167.151C131.501 167.151 130.072 168.58 130.072 170.343C130.072 172.106 131.501 173.535 133.264 173.535Z" fill="white"/>
<path d="M171.204 173.535C172.967 173.535 174.396 172.106 174.396 170.343C174.396 168.58 172.967 167.151 171.204 167.151C169.441 167.151 168.012 168.58 168.012 170.343C168.012 172.106 169.441 173.535 171.204 173.535Z" fill="white"/>
<path d="M106.874 125.011H101.71C100.897 125.011 100.239 125.67 100.239 126.483V135.388C100.239 136.2 100.897 136.859 101.71 136.859H106.874C107.686 136.859 108.345 136.2 108.345 135.388V126.483C108.345 125.67 107.686 125.011 106.874 125.011Z" fill="#020100"/>
<path d="M202.753 125.011H197.589C196.777 125.011 196.118 125.67 196.118 126.483V135.388C196.118 136.2 196.777 136.859 197.589 136.859H202.753C203.566 136.859 204.224 136.2 204.224 135.388V126.483C204.224 125.67 203.566 125.011 202.753 125.011Z" fill="#020100"/>
</svg>
